<?xml version="1.0" encoding="utf-8"?>
<!-- Generator: Adobe Illustrator 16.0.2, SVG Export Plug-In . SVG Version: 6.00 Build 0)  -->
<!DOCTYPE svg PUBLIC "-//W3C//DTD SVG 1.1//EN" "http://www.w3.org/Graphics/SVG/1.1/DTD/svg11.dtd">
<svg version="1.1" id="Layer_1" xmlns="http://www.w3.org/2000/svg" xmlns:xlink="http://www.w3.org/1999/xlink" x="0px" y="0px"
	 width="1280px" height="367px" viewBox="0 0 1280 367" enable-background="new 0 0 1280 367" xml:space="preserve">
<linearGradient id="SVGID_1_" gradientUnits="userSpaceOnUse" x1="640.9995" y1="0" x2="640.9995" y2="282">
	<stop  offset="0" style="stop-color:#FFFFFF"/>
	<stop  offset="1" style="stop-color:#75CEE2"/>
</linearGradient>
<rect fill="url(#SVGID_1_)" width="1282" height="282"/>
<path fill="#FFFFFF" d="M1257,112.5c0-11.322-9.178-20.5-20.5-20.5c-1.38,0-2.726,0.141-4.028,0.4
	c0.341-1.916,0.528-3.886,0.528-5.9c0-18.502-14.998-33.5-33.5-33.5c-1.615,0-3.201,0.121-4.755,0.342
	C1192.422,31.785,1174.174,15,1152,15c-16.412,0-30.672,9.197-37.919,22.716c-3.327-1.107-6.882-1.716-10.581-1.716
	c-18.502,0-33.5,14.998-33.5,33.5c0,2.813,0.352,5.542,1.004,8.152C1069.069,77.229,1067.062,77,1065,77c-15.464,0-28,12.536-28,28
	s12.536,28,28,28c0.335,0,0.668-0.014,1-0.025V133h174l-0.229-0.285C1249.534,131.146,1257,122.706,1257,112.5z"/>
<path fill="#FFFFFF" d="M688,141.5c0-11.322-9.178-20.5-20.5-20.5c-1.38,0-2.726,0.141-4.028,0.4c0.341-1.916,0.528-3.886,0.528-5.9
	c0-18.502-14.998-33.5-33.5-33.5c-1.615,0-3.201,0.121-4.755,0.342C623.422,60.785,605.174,44,583,44
	c-16.412,0-30.672,9.197-37.919,22.716C541.754,65.608,538.199,65,534.5,65C515.998,65,501,79.998,501,98.5
	c0,2.813,0.352,5.542,1.004,8.152C500.069,106.229,498.062,106,496,106c-15.464,0-28,12.536-28,28s12.536,28,28,28
	c0.335,0,0.668-0.014,1-0.025V162h174l-0.229-0.285C680.534,160.146,688,151.706,688,141.5z"/>
<path fill="#FFFFFF" d="M810,101.835c0-4.51,3.655-8.165,8.165-8.165c0.55,0,1.086,0.056,1.604,0.159
	c-0.136-0.763-0.21-1.548-0.21-2.351c0-7.369,5.974-13.343,13.343-13.343c0.644,0,1.275,0.048,1.894,0.136
	C835.722,69.686,842.99,63,851.822,63c6.537,0,12.217,3.663,15.103,9.048c1.325-0.44,2.741-0.684,4.215-0.684
	c7.369,0,13.343,5.974,13.343,13.343c0,1.121-0.14,2.208-0.399,3.248c0.771-0.169,1.57-0.26,2.392-0.26
	c6.159,0,11.152,4.992,11.152,11.152c0,6.159-5.031,11.152-11.19,11.152c-0.134,0,0.563-0.006-0.437-0.01V110h-69.229l0.091-0.113
	C812.974,109.262,810,105.9,810,101.835z"/>
<path fill="#FFFFFF" d="M23,179.835c0-4.51,3.655-8.165,8.165-8.165c0.55,0,1.086,0.056,1.604,0.159
	c-0.136-0.763-0.21-1.548-0.21-2.351c0-7.369,5.974-13.343,13.343-13.343c0.644,0,1.275,0.048,1.894,0.136
	C48.722,147.686,55.99,141,64.822,141c6.537,0,12.217,3.663,15.103,9.048c1.325-0.44,2.741-0.684,4.215-0.684
	c7.369,0,13.343,5.974,13.343,13.343c0,1.121-0.14,2.208-0.399,3.248c0.771-0.169,1.57-0.26,2.392-0.26
	c6.159,0,11.152,4.992,11.152,11.152c0,6.159-5.031,11.152-11.19,11.152c-0.134,0,0.563-0.006-0.437-0.01V188H29.771l0.091-0.113
	C25.974,187.262,23,183.9,23,179.835z"/>
<path fill="#FFFFFF" d="M183,130.32c0-8.107,6.572-14.68,14.679-14.68c0.989,0,1.953,0.101,2.885,0.287
	c-0.244-1.373-0.377-2.783-0.377-4.226c0-13.249,10.74-23.989,23.988-23.989c1.157,0,2.293,0.086,3.404,0.246
	c1.665-15.437,14.732-27.457,30.611-27.457c11.752,0,21.964,6.586,27.152,16.267c2.382-0.793,4.928-1.229,7.578-1.229
	c13.248,0,23.988,10.74,23.988,23.989c0,2.014-0.251,3.969-0.718,5.838c1.385-0.303,2.823-0.468,4.3-0.468
	c11.073,0,20.05,8.978,20.05,20.052c0,11.073-8.863,20.05-19.936,20.05c-0.241,0,0.397-0.01-0.603-0.019V145H195.174l0.164-0.205
	C188.346,143.672,183,137.629,183,130.32z"/>
<path fill="#BADD8C" d="M-3,374"/>
<path fill="#BADD8C" d="M27,367h1253v-73l0.004-99.316c0,0-150.955-82.47-339.004-76.684c-260,8-430,150-598,150S26,210.25,0,194.25
	C0,264,0,367,0,367H27z"/>
<path fill="#005B25" d="M27,367h1253v14l0.004-99.316c0,0-121.133-128.846-340.154-128.846C679.727,152.838,519.648,306.997,307,333
	c-74.783,9.145-231,13-307-51.75C0,351,0,367,0,367H27z"/>
</svg>
